<?xml version="1.0" encoding="UTF-8" ?>
<!DOCTYPE svg PUBLIC "-//W3C//DTD SVG 1.1//EN" "http://www.w3.org/Graphics/SVG/1.1/DTD/svg11.dtd">
<svg width="900" height="600" viewBox="-85 -85 700 700" version="1.1" xmlns="http://www.w3.org/2000/svg">
<g id="#08266eff">
<path fill="#08266e" opacity="1.00" d=" M 166.60 26.83 C 199.12 23.14 232.90 26.77 263.02 39.99 C 289.87 51.63 313.21 71.14 329.42 95.50 C 348.11 123.32 357.53 156.73 358.74 190.06 C 360.41 224.76 352.60 260.09 335.20 290.27 C 320.04 316.78 297.43 339.07 270.40 353.35 C 239.04 370.10 202.31 375.74 167.19 371.26 C 136.65 367.56 107.10 355.31 83.31 335.74 C 56.39 313.91 37.18 283.21 27.90 249.92 C 18.63 216.66 18.91 180.97 27.42 147.58 C 35.99 114.00 54.90 82.82 82.12 61.14 C 106.16 41.77 136.05 30.37 166.60 26.83 M 178.60 75.80 C 160.49 77.83 143.09 85.42 129.23 97.25 C 110.63 113.02 98.25 135.19 91.83 158.52 C 83.77 187.70 84.79 219.16 93.87 247.97 C 101.04 270.18 113.84 291.23 132.88 305.16 C 149.79 317.69 171.09 323.54 192.01 323.02 C 213.29 322.95 234.71 315.90 251.13 302.19 C 269.22 287.26 281.07 265.93 287.44 243.59 C 296.83 210.73 295.69 174.68 282.91 142.87 C 274.36 121.77 260.35 102.37 241.07 89.89 C 222.81 77.88 200.21 73.21 178.60 75.80 Z" />
<path fill="#08266e" opacity="1.00" d=" M 355.43 308.02 C 370.95 300.22 388.62 296.40 405.97 297.82 C 417.48 298.73 429.36 303.08 436.76 312.34 C 444.36 322.05 446.28 335.10 444.86 347.07 C 442.78 361.87 434.65 374.95 425.55 386.47 C 414.89 399.93 402.35 411.71 390.17 423.75 C 410.11 423.76 430.05 423.72 449.99 423.77 C 449.99 431.52 450.06 439.28 449.96 447.03 C 417.31 446.95 384.66 447.02 352.00 447.00 C 352.01 438.69 351.98 430.39 352.02 422.09 C 366.81 408.57 381.65 395.00 394.79 379.84 C 402.26 370.91 409.54 361.47 413.64 350.47 C 416.02 344.07 416.68 336.30 412.63 330.43 C 407.95 323.48 399.08 320.72 391.03 320.97 C 378.94 320.97 367.77 326.49 357.69 332.66 C 356.99 324.44 356.04 316.24 355.43 308.02 Z" />
</g></svg>
