<svg xmlns="http://www.w3.org/2000/svg" width="900" height="600" viewBox="-16 176 548 160">
  <path fill-rule="evenodd" clip-rule="evenodd" fill="#98CB00" d="M177.6 200.8c17.7-1.2 32.1 5.8 41.1 14.3 9.4 8.9 16.7 19.9 17.9 37.5 1.2 17.6-5.7 31.1-14.3 40.7-8.3 9.4-21.1 17.2-37.3 17.9-17.4.7-31.2-5.4-40.7-14.3-9.7-9.1-16.9-20.5-18.1-37.3-1.3-17.5 5.9-31.8 14.1-40.9 8.6-9.4 20.3-16.7 37.3-17.9zM158 235.2c-4.4 5-8.3 13-7.8 22.5.6 9.6 4.5 15.5 9.6 20.6 4.9 4.9 12.1 8.8 21.4 8.9 17.3.1 30.5-13 31.3-29.5.4-9.3-3.4-17.5-8-22.5-5.7-6.1-14-11.3-26.3-10.1-8.6.8-15.8 5.1-20.2 10.1z"/>
  <path fill-rule="evenodd" clip-rule="evenodd" fill="#98CB00" d="M78 203.3c5 14 10.3 27.8 15.4 41.8 5.5-13.7 10.5-27.9 15.8-41.8H138c-9.5 21.1-19.3 41.5-29.2 62.7-.7 1.4-1.6 3.1-1.8 4.2-.5 2.9 0 6.5 0 9.6v28.4H80.2v-28.4c0-3.1.5-6.6 0-9.4-.4-2.4-2.6-5.9-3.8-8.5-9.1-19.4-18.2-38.5-27.3-57.9 0-.2 0-.3-.2-.4 0-.2.1-.2.2-.2 9.6-.1 19.2-.1 28.9-.1zM241.7 203.5c24.3.6 50.1-2.6 65.7 5.8 14.8 7.9 24.8 23.9 24.8 46.7 0 34.9-19.9 52.3-55.1 52.3h-35.7V204c.1-.2.1-.4.3-.5zm26.6 24.1v57.2c10.5-.1 18 .8 24.8-2.7 13.6-7 15.7-30.7 8-44.2-5.5-9.5-16.5-12.1-32.6-10.9-.2.1-.2.4-.2.6zM338.8 203.5H398V227h-32.4c-.4 5.1-.1 10.9-.2 16.3h31.7v23.5h-31.5c-.4 5.6-.1 11.9-.2 17.7 10.5.4 21.8.1 32.6.2v23.5h-59.4V203.9c0-.1 0-.3.2-.4zM405.4 203.5h26.8v81.1c10 .4 20.7.1 31 .2v23.5h-57.9V204c-.1-.2-.1-.4.1-.5z"/></svg>
